<svg xmlns="http://www.w3.org/2000/svg" width="64" height="64" viewBox="0 0 64 64" fill="none">
  <path d="M 9.373 9.373 C 6.165 12.58 5.007 17.061 5.897 21.188 C 2.349 23.476 0 27.464 0 32 C 0 36.536 2.349 40.524 5.897 42.812 C 5.007 46.939 6.165 51.42 9.373 54.628 C 12.58 57.835 17.061 58.993 21.188 58.103 C 23.476 61.651 27.464 64 32 64 C 36.536 64 40.524 61.651 42.812 58.103 C 46.939 58.993 51.42 57.835 54.628 54.628 C 57.835 51.42 58.993 46.939 58.103 42.812 C 61.651 40.524 64 36.536 64 32 C 64 27.464 61.651 23.476 58.103 21.188 C 58.993 17.061 57.835 12.58 54.628 9.373 C 51.42 6.165 46.939 5.007 42.812 5.897 C 40.524 2.349 36.536 0 32 0 C 27.464 0 23.476 2.349 21.188 5.897 C 17.061 5.007 12.58 6.165 9.373 9.373 Z" fill="currentColor" fill-rule="evenodd"></path>
</svg>