<svg xmlns="http://www.w3.org/2000/svg" width="64" height="64" viewBox="0 0 64 64" fill="none">
  <path d="M 28.778 1.961 C 30.13 -0.654 33.87 -0.654 35.222 1.961 L 43.831 18.613 C 44.176 19.28 44.72 19.824 45.388 20.169 L 62.039 28.778 C 64.654 30.13 64.654 33.87 62.039 35.222 L 45.388 43.831 C 44.72 44.176 44.176 44.72 43.831 45.388 L 35.222 62.039 C 33.87 64.654 30.13 64.654 28.778 62.039 L 20.169 45.388 C 19.824 44.72 19.28 44.176 18.613 43.831 L 1.961 35.222 C -0.654 33.87 -0.654 30.13 1.961 28.778 L 18.613 20.169 C 19.28 19.824 19.824 19.28 20.169 18.613 L 28.778 1.961 Z" fill="currentColor" fill-rule="nonzero"></path>
</svg>