<svg xmlns="http://www.w3.org/2000/svg" width="54.457" height="54.457" viewBox="0 0 54.457 54.457" fill="none">
  <path d="M 28.77 3.859 L 28.77 21.524 C 28.77 21.752 28.789 21.978 28.83 22.201 L 31.332 36.254 C 31.481 37.094 30.923 37.895 30.084 38.044 C 29.991 38.061 29.901 38.069 29.81 38.069 C 29.076 38.069 28.426 37.544 28.292 36.795 L 25.744 22.481 C 25.725 22.255 25.704 22.03 25.685 21.804 L 25.685 3.859 C 25.685 1.728 23.957 0 21.825 0 L 3.859 0 C 1.728 0 0 1.728 0 3.859 L 0 50.598 C 0 52.729 1.728 54.457 3.859 54.457 L 50.598 54.457 C 52.729 54.457 54.457 52.729 54.457 50.598 L 54.457 3.859 C 54.457 1.728 52.729 0 50.598 0 L 32.629 0 C 30.498 0 28.77 1.728 28.77 3.859 L 28.77 3.859 Z" fill="currentColor" fill-rule="nonzero"></path>
</svg>