<svg xmlns="http://www.w3.org/2000/svg" width="54.456" height="54.456" viewBox="0 0 54.456 54.456" fill="none">
  <path d="M 28.77 3.859 L 28.77 21.524 C 28.77 21.752 28.79 21.977 28.83 22.201 L 31.333 36.254 C 31.481 37.093 30.923 37.895 30.084 38.044 C 29.991 38.061 29.901 38.068 29.811 38.068 C 29.077 38.068 28.427 37.543 28.293 36.794 L 25.745 22.481 C 25.725 22.255 25.705 22.03 25.685 21.804 L 25.685 3.859 C 25.685 1.728 23.957 0 21.826 0 L 3.859 0 C 1.728 0 0 1.728 0 3.859 L 0 50.597 C 0 52.729 1.728 54.456 3.859 54.456 L 50.597 54.456 C 52.729 54.456 54.456 52.729 54.456 50.597 L 54.456 3.859 C 54.456 1.728 52.729 0 50.597 0 L 32.629 0 C 30.498 0 28.77 1.728 28.77 3.859 L 28.77 3.859 Z" fill="currentColor" fill-rule="nonzero"></path>
</svg>