<svg xmlns="http://www.w3.org/2000/svg" width="1200" height="800" viewBox="0 0 1200 800" fill="none" aria-hidden="true">
  <defs>
    <linearGradient id="g1" x1="0" y1="0" x2="1" y2="1">
      <stop offset="0%" stop-color="#e8e6dc"/>
      <stop offset="100%" stop-color="#d4d2c8"/>
    </linearGradient>
    <linearGradient id="g2" x1="0" y1="0" x2="0" y2="1">
      <stop offset="0%" stop-color="#6257e8" stop-opacity="0.35"/>
      <stop offset="100%" stop-color="#19191b" stop-opacity="0.2"/>
    </linearGradient>
  </defs>
  <rect width="1200" height="800" fill="#c8c4b8"/>
  <!-- tile grid: pseudo screenshots -->
  <g transform="rotate(-2 600 400)" opacity="0.98">
    <rect x="40" y="48" width="340" height="220" rx="12" fill="url(#g1)" stroke="#19191b" stroke-opacity="0.14"/>
    <rect x="56" y="72" width="100" height="12" rx="4" fill="#19191b" fill-opacity="0.12"/>
    <rect x="56" y="96" width="200" height="8" rx="2" fill="#19191b" fill-opacity="0.08"/>
    <rect x="56" y="124" width="280" height="40" rx="6" fill="url(#g2)"/>
    <rect x="56" y="180" width="60" height="64" rx="8" fill="#3d9a6e" fill-opacity="0.35"/>
    <text x="86" y="218" font-family="system-ui,sans-serif" font-size="22" font-weight="700" fill="#19191b" text-anchor="middle" opacity="0.85">94</text>
    <rect x="130" y="188" width="200" height="10" rx="2" fill="#19191b" fill-opacity="0.1"/>
    <rect x="130" y="208" width="160" height="10" rx="2" fill="#19191b" fill-opacity="0.08"/>
    <rect x="130" y="228" width="140" height="10" rx="2" fill="#19191b" fill-opacity="0.06"/>

    <rect x="420" y="80" width="360" height="240" rx="12" fill="url(#g1)" stroke="#19191b" stroke-opacity="0.12"/>
    <rect x="440" y="104" width="120" height="10" rx="2" fill="#19191b" fill-opacity="0.1"/>
    <path d="M440 148 L760 148" stroke="#19191b" stroke-opacity="0.06"/>
    <rect x="448" y="160" width="8" height="8" rx="2" fill="#c45c3e" fill-opacity="0.5"/>
    <rect x="468" y="158" width="140" height="12" rx="2" fill="#19191b" fill-opacity="0.08"/>
    <rect x="448" y="188" width="8" height="8" rx="2" fill="#e6a23c" fill-opacity="0.55"/>
    <rect x="468" y="186" width="180" height="12" rx="2" fill="#19191b" fill-opacity="0.07"/>
    <rect x="448" y="216" width="8" height="8" rx="2" fill="#3d9a6e" fill-opacity="0.45"/>
    <rect x="468" y="214" width="100" height="12" rx="2" fill="#19191b" fill-opacity="0.06"/>
    <rect x="448" y="256" width="280" height="36" rx="6" fill="#6257e8" fill-opacity="0.15"/>

    <rect x="820" y="40" width="320" height="200" rx="12" fill="url(#g1)" stroke="#19191b" stroke-opacity="0.12"/>
    <rect x="840" y="64" width="90" height="90" rx="45" stroke="#6257e8" stroke-width="8" fill="none" opacity="0.4"/>
    <text x="885" y="118" font-family="system-ui,sans-serif" font-size="18" font-weight="600" fill="#19191b" text-anchor="middle" opacity="0.5">12</text>
    <rect x="950" y="72" width="160" height="10" rx="2" fill="#19191b" fill-opacity="0.1"/>
    <rect x="950" y="92" width="130" height="10" rx="2" fill="#19191b" fill-opacity="0.07"/>
    <rect x="950" y="128" width="170" height="80" rx="8" fill="#19191b" fill-opacity="0.05"/>

    <rect x="80" y="320" width="380" height="200" rx="12" fill="url(#g1)" stroke="#19191b" stroke-opacity="0.12"/>
    <rect x="100" y="348" width="200" height="10" rx="2" fill="#19191b" fill-opacity="0.09"/>
    <rect x="100" y="372" width="280" height="64" rx="6" fill="#19191b" fill-opacity="0.04"/>
    <rect x="108" y="388" width="40" height="32" rx="4" fill="#6257e8" fill-opacity="0.25"/>
    <rect x="156" y="388" width="40" height="24" rx="4" fill="#6257e8" fill-opacity="0.18"/>
    <rect x="204" y="388" width="40" height="40" rx="4" fill="#6257e8" fill-opacity="0.32"/>
    <rect x="252" y="388" width="40" height="28" rx="4" fill="#6257e8" fill-opacity="0.2"/>
    <rect x="100" y="452" width="320" height="48" rx="6" fill="#19191b" fill-opacity="0.06"/>

    <rect x="500" y="360" width="340" height="220" rx="12" fill="url(#g1)" stroke="#19191b" stroke-opacity="0.12"/>
    <text x="520" y="410" font-family="system-ui,sans-serif" font-size="14" font-weight="600" fill="#19191b" opacity="0.35">example.com ť Audit queue</text>
    <rect x="520" y="428" width="300" height="36" rx="6" fill="#fff" fill-opacity="0.4"/>
    <rect x="532" y="440" width="200" height="12" rx="2" fill="#19191b" fill-opacity="0.08"/>
    <rect x="520" y="478" width="300" height="36" rx="6" fill="#fff" fill-opacity="0.35"/>
    <rect x="532" y="490" width="160" height="12" rx="2" fill="#19191b" fill-opacity="0.07"/>
    <rect x="520" y="528" width="120" height="32" rx="8" fill="#19191b" fill-opacity="0.75"/>

    <rect x="880" y="280" width="280" height="260" rx="12" fill="url(#g1)" stroke="#19191b" stroke-opacity="0.12"/>
    <rect x="900" y="304" width="100" height="8" rx="2" fill="#19191b" fill-opacity="0.1"/>
    <rect x="900" y="328" width="220" height="120" rx="8" fill="#19191b" fill-opacity="0.04"/>
    <polyline points="920,420 960,380 1000,400 1040,340 1080,360" stroke="#6257e8" stroke-width="3" fill="none" opacity="0.45"/>
    <circle cx="1040" cy="340" r="6" fill="#6257e8" opacity="0.6"/>

    <rect x="200" y="560" width="800" height="200" rx="14" fill="url(#g1)" stroke="#19191b" stroke-opacity="0.11"/>
    <rect x="228" y="592" width="240" height="12" rx="2" fill="#19191b" fill-opacity="0.08"/>
    <rect x="228" y="620" width="744" height="100" rx="8" fill="#fff" fill-opacity="0.25"/>
    <rect x="248" y="648" width="120" height="8" rx="2" fill="#19191b" fill-opacity="0.07"/>
    <rect x="248" y="668" width="200" height="8" rx="2" fill="#19191b" fill-opacity="0.05"/>
    <rect x="248" y="688" width="90" height="8" rx="2" fill="#19191b" fill-opacity="0.05"/>
  </g>
</svg>
