<svg xmlns="http://www.w3.org/2000/svg" width="54.459" height="54.459" viewBox="0 0 54.459 54.459" fill="none">
  <path d="M 27.23 0 C 12.191 0 0 12.191 0 27.23 C 0 42.269 12.191 54.459 27.23 54.459 C 42.268 54.459 54.459 42.268 54.459 27.23 C 54.459 12.192 42.268 0 27.23 0 Z M 40.155 28.775 L 28.774 28.775 L 28.774 40.156 C 28.774 41.009 28.082 41.7 27.23 41.7 C 26.377 41.7 25.686 41.009 25.686 40.156 L 25.686 28.775 L 14.305 28.775 C 13.452 28.775 12.761 28.084 12.761 27.231 C 12.761 26.378 13.452 25.687 14.305 25.687 L 25.686 25.687 L 25.686 14.305 C 25.686 13.452 26.377 12.761 27.23 12.761 C 28.082 12.761 28.774 13.452 28.774 14.305 L 28.774 25.687 L 40.155 25.687 C 41.007 25.687 41.699 26.378 41.699 27.231 C 41.699 28.084 41.007 28.775 40.155 28.775 Z" fill="currentColor" fill-rule="nonzero"></path>
</svg>