<svg xmlns="http://www.w3.org/2000/svg" width="54.457" height="54.456" viewBox="0 0 54.457 54.456" fill="none">
  <path d="M 30.666 23.092 L 23.131 15.558 C 22.527 14.955 22.527 13.978 23.131 13.375 C 23.729 12.772 24.708 12.772 25.311 13.375 L 31.943 20.005 C 32.666 20.728 33.648 21.135 34.671 21.135 L 50.597 21.135 C 52.729 21.135 54.456 19.407 54.456 17.276 L 54.456 3.859 C 54.456 1.728 52.729 0 50.597 0 L 3.859 0 C 1.728 0 0 1.728 0 3.859 L 0 26.375 C 0 28.507 1.728 30.234 3.859 30.234 L 21.063 30.234 C 22.086 30.234 23.068 30.641 23.792 31.365 L 31.325 38.898 C 31.928 39.501 31.928 40.478 31.325 41.081 C 31.023 41.383 30.628 41.533 30.234 41.533 C 29.841 41.533 29.445 41.383 29.144 41.081 L 22.516 34.452 C 21.792 33.729 20.81 33.322 19.787 33.322 L 3.86 33.322 C 1.728 33.322 0.001 35.05 0.001 37.181 L 0.001 50.597 C 0.001 52.728 1.728 54.456 3.86 54.456 L 50.598 54.456 C 52.729 54.456 54.457 52.728 54.457 50.597 L 54.457 28.081 C 54.457 25.95 52.729 24.222 50.598 24.222 L 33.395 24.222 C 32.372 24.222 31.39 23.815 30.667 23.092 L 30.666 23.092 Z" fill="currentColor" fill-rule="nonzero"></path>
</svg>